<svg width="147" height="86" viewBox="0 0 147 86" fill="none" xmlns="http://www.w3.org/2000/svg">
<path d="M3.60246 81.6509H6.88145V75.5614C7.48371 75.7956 8.52094 75.9629 9.59163 75.9629C14.6105 75.9629 17.7556 73.0519 17.7556 68.0331C17.7556 63.215 14.5436 60.4714 9.59163 60.4714C7.34987 60.4714 5.10812 61.0067 3.60246 61.6424V81.6509ZM6.88145 63.8173C7.58409 63.583 8.62132 63.4492 9.55817 63.4492C12.536 63.4492 14.4097 65.1891 14.4097 68.1335C14.4097 71.4459 12.3353 73.1189 9.39088 73.1189C8.45402 73.1189 7.58409 72.9516 6.88145 72.6839V63.8173ZM24.5282 64.1518C25.1974 63.8842 26.0004 63.6834 27.0042 63.6834C27.8741 63.6834 28.9113 63.7838 29.8482 64.1518V60.9398C28.8444 60.6721 28.0414 60.5717 27.0042 60.5717C24.8963 60.5717 22.8218 61.1405 21.2158 62.0439V75.6283H24.5282V64.1518ZM31.3191 68.2338C31.3191 72.8177 34.5312 75.9629 38.9478 75.9629C43.3978 75.9629 46.6099 72.8177 46.6099 68.2338C46.6099 63.6165 43.3978 60.4714 38.9478 60.4714C34.5312 60.4714 31.3191 63.6165 31.3191 68.2338ZM43.264 68.2338C43.264 71.2117 41.4906 73.1189 38.9478 73.1189C36.4718 73.1189 34.665 71.2117 34.665 68.2338C34.665 65.2225 36.4718 63.3154 38.9478 63.3154C41.4906 63.3154 43.264 65.2225 43.264 68.2338ZM59.8338 75.3606C59.8338 78.1377 58.027 79.2084 55.9191 79.2084C54.1792 79.2084 52.6401 78.7734 51.034 77.9035V80.9483C52.4059 81.584 54.1123 81.9855 55.9191 81.9855C59.2984 81.9855 63.1128 80.4129 63.1128 75.5614V61.542C61.6406 60.9398 59.5661 60.4714 57.5251 60.4714C52.3724 60.4714 49.1269 63.3488 49.1269 68.1C49.1269 73.0185 52.3724 75.5948 56.9898 75.5948C58.1274 75.5948 59.3319 75.3272 59.8338 75.026V75.3606ZM59.8338 72.3159C59.0308 72.617 58.2947 72.8177 57.2574 72.8177C54.3465 72.8177 52.4728 71.0109 52.4728 68.1C52.4728 65.0552 54.3799 63.3823 57.5251 63.3823C58.395 63.3823 59.1981 63.5161 59.8338 63.7503V72.3159ZM70.9265 64.1518C71.5957 63.8842 72.3987 63.6834 73.4025 63.6834C74.2724 63.6834 75.3096 63.7838 76.2465 64.1518V60.9398C75.2427 60.6721 74.4397 60.5717 73.4025 60.5717C71.2945 60.5717 69.2201 61.1405 67.614 62.0439V75.6283H70.9265V64.1518ZM86.2829 66.9289H84.6434C80.3606 66.9289 77.7843 68.4011 77.7843 71.4125C77.7843 74.7584 80.5948 75.9294 84.4426 75.9294C86.1156 75.9294 88.1231 75.6952 89.5284 75.3272V65.5237C89.5284 61.8097 87.2197 60.4714 83.9742 60.4714C82.134 60.4714 80.461 60.9398 79.1561 61.6759V64.5534C80.3941 63.8507 81.7325 63.3488 83.4389 63.3488C85.0784 63.3488 86.2829 64.0849 86.2829 65.691V66.9289ZM86.2829 73.2862C85.6806 73.3865 84.978 73.4535 84.4761 73.4535C82.4686 73.4535 81.0633 72.8512 81.0633 71.3121C81.0633 69.8064 82.5689 69.1372 84.8776 69.1372H86.2829V73.2862ZM111.853 75.6283H115.132V66.0256C115.132 61.9101 113.024 60.4714 109.477 60.4714C107.47 60.4714 105.797 61.0067 104.291 61.6424C103.388 60.9063 102.016 60.4714 100.276 60.4714C98.1682 60.4714 95.8929 61.0067 93.8519 61.7763V75.6283H97.1644V63.8842C98.0009 63.6165 98.9377 63.3823 100.142 63.3823C101.748 63.3823 102.852 64.1518 102.852 66.1259V75.6283H106.131V65.9252C106.131 65.1222 105.998 64.5199 105.797 64.0515C106.533 63.7169 107.838 63.3823 109.143 63.3823C110.715 63.3823 111.853 64.1518 111.853 66.1259V75.6283Z" fill="white"/>
<path d="M1.90717 55.2146C3.86452 56.4192 6.87583 57.3226 10.1883 57.3226C16.512 57.3226 21.6815 54.512 21.6815 48.0377C21.6815 43.069 19.5735 40.2083 13.4505 38.6022C10.2887 37.7992 8.58224 37.1969 8.58224 35.2898C8.58224 33.8845 9.68639 32.8807 11.9449 32.8807C15.0064 32.8807 17.566 34.0853 19.8747 35.9924V28.6649C17.6664 27.36 15.2071 26.5068 11.6437 26.5068C5.77168 26.5068 1.3049 29.8694 1.3049 35.7415C1.3049 40.7102 3.61358 43.5207 9.78677 45.0766C12.7981 45.8294 14.3539 46.4818 14.3539 48.2886C14.3539 50.2962 12.3966 50.9486 10.1381 50.9486C6.77546 50.9486 4.11546 49.5433 1.90717 47.8871V55.2146ZM3.16188 50.246C5.11923 51.4003 7.42791 52.2033 10.1381 52.2033C13.049 52.2033 15.6086 51.2497 15.6086 48.2886C15.6086 45.6788 13.6011 44.7754 10.0879 43.872C4.91848 42.4667 2.55962 39.9573 2.55962 35.7415C2.55962 30.6724 6.47432 27.7615 11.6437 27.7615C14.4543 27.7615 16.763 28.4641 18.62 29.4177V33.5332C16.6626 32.3287 14.4543 31.626 11.9449 31.626C8.83319 31.626 7.32753 33.1317 7.32753 35.2898C7.32753 38.1003 9.48564 38.8532 13.1494 39.8068C18.2686 41.212 20.4267 43.8218 20.4267 48.0377C20.4267 53.6588 15.8094 56.0679 10.1883 56.0679C7.4781 56.0679 4.96867 55.4154 3.16188 54.512V50.246ZM39.856 33.5834H48.7896V27.0087H23.4945V33.5834H32.4281V56.8207H39.856V33.5834ZM38.6013 55.566H33.6828V32.3287H24.7492V28.2634H47.5348V32.3287H38.6013V55.566ZM62.622 34.4868L66.3861 45.0766H58.7575L62.622 34.4868ZM70.5518 56.8207H78.7325L67.139 27.0087H58.1552L46.5617 56.8207H54.4413L56.499 51.1494H68.5442L70.5518 56.8207ZM69.4476 49.8947H55.5956C55.0435 51.5007 54.1903 53.7592 53.5379 55.566H48.3684L59.0084 28.2634H66.2858L76.9257 55.566H71.4552L69.4476 49.8947ZM57.0009 46.3313H68.1929L62.622 30.7226L57.0009 46.3313ZM89.3035 27.0087H81.7752V56.8207H89.0024V38.9034L101.449 56.8207H108.526V27.0087H101.299V45.2773L89.3035 27.0087ZM102.553 49.4931V28.2634H107.271V55.566H102.152L87.7476 34.8381V55.566H83.0299V28.2634H88.6008L102.553 49.4931ZM122.141 33.5332C123.044 33.4328 124.248 33.3826 125.202 33.3826C129.92 33.3826 133.684 35.892 133.684 41.6135C133.684 47.8369 130.321 50.6977 125.353 50.6977C124.299 50.6977 123.044 50.6475 122.141 50.5471V33.5332ZM114.662 56.5195C116.971 57.0214 120.886 57.2222 124.449 57.2222C134.286 57.2222 141.363 52.5045 141.363 41.6135C141.363 31.626 134.587 26.5068 124.65 26.5068C120.986 26.5068 116.871 26.9083 114.662 27.2596V56.5195ZM115.917 28.3638C118.226 28.0626 121.639 27.7615 124.65 27.7615C133.834 27.7615 140.108 32.4792 140.108 41.6135C140.108 51.6513 133.533 55.9675 124.449 55.9675C121.438 55.9675 118.125 55.8169 115.917 55.5158V28.3638ZM120.886 51.7014C122.391 51.852 124.098 51.9524 125.353 51.9524C131.074 51.9524 134.939 48.6901 134.939 41.6135C134.939 35.0388 130.622 32.1279 125.202 32.1279C124.048 32.1279 122.391 32.2283 120.886 32.3788V51.7014Z" fill="white"/>
<path d="M1.66184 10.9547H3.90359V18.7507C3.90359 22.1301 5.94459 23.3346 8.35365 23.3346C9.75892 23.3346 10.9635 23.0335 11.9338 22.5316V19.5537C11.0304 20.0891 10.1939 20.3902 9.22358 20.3902C7.95214 20.3902 7.18258 19.7879 7.18258 18.0146V10.9547H11.3984V8.17765H7.18258V4.56407H3.90359V8.17765H1.66184V10.9547ZM15.1382 23H18.4507V11.3563C19.3206 11.0551 20.4917 10.8544 21.6628 10.8544C23.503 10.8544 24.8414 11.6239 24.8414 13.7653V23H28.1204V13.4642C28.1204 9.31525 25.6778 7.84306 22.3319 7.84306C20.7594 7.84306 19.2872 8.2111 18.4507 8.5457V0.247854H15.1382V23ZM44.9019 16.3417V14.6687C44.9019 10.6202 42.8609 7.84306 38.5447 7.84306C34.4627 7.84306 31.3844 10.9882 31.3844 15.7059C31.3844 20.3902 34.5296 23.3346 39.1469 23.3346C41.0541 23.3346 43.0282 22.8996 44.3665 21.9628V19.0518C42.8944 20.0221 41.4222 20.4906 39.3812 20.4906C37.0725 20.4906 34.7973 19.0518 34.5965 16.4086V16.3417H44.9019ZM34.6969 14.2003C35.1319 11.9585 36.5371 10.6202 38.4443 10.6202C40.5857 10.6202 41.7233 11.8916 41.7902 14.2003H34.6969Z" fill="white"/>
</svg>
